{
    "asset" : {
        "generator" : "Khronos glTF Blender I/O v1.8.19",
        "version" : "2.0"
    },
    "extensionsUsed" : [
        "KHR_materials_clearcoat"
    ],
    "scene" : 0,
    "scenes" : [
        {
            "name" : "Scene",
            "nodes" : [
                0,
                1
            ]
        }
    ],
    "nodes" : [
        {
            "name" : "Empty",
            "rotation" : [
                0.5,
                0.5,
                -0.5,
                0.4999999701976776
            ],
            "translation" : [
                0,
                0.4626157283782959,
                -0.37611931562423706
            ]
        },
        {
            "mesh" : 0,
            "name" : "Cylinder",
            "scale" : [
                1,
                1.276281714439392,
                1
            ],
            "translation" : [
                0,
                1.479952096939087,
                0
            ]
        }
    ],
    "materials" : [
        {
            "doubleSided" : true,
            "extensions" : {
                "KHR_materials_clearcoat" : {
                    "clearcoatFactor" : 0.6772725582122803,
                    "clearcoatRoughnessFactor" : 0.40272724628448486
                }
            },
            "name" : "white",
            "pbrMetallicRoughness" : {
                "metallicFactor" : 0.29545456171035767,
                "roughnessFactor" : 0.5
            }
        },
        {
            "doubleSided" : true,
            "name" : "red",
            "pbrMetallicRoughness" : {
                "baseColorFactor" : [
                    0.5925769209861755,
                    0.02712344564497471,
                    0.030010804533958435,
                    1
                ],
                "metallicFactor" : 0,
                "roughnessFactor" : 0.5
            }
        }
    ],
    "meshes" : [
        {
            "name" : "Cylinder.002",
            "primitives" : [
                {
                    "attributes" : {
                        "POSITION" : 0,
                        "NORMAL" : 1,
                        "TEXCOORD_0" : 2
                    },
                    "indices" : 3,
                    "material" : 0
                },
                {
                    "attributes" : {
                        "POSITION" : 4,
                        "NORMAL" : 5,
                        "TEXCOORD_0" : 6
                    },
                    "indices" : 7,
                    "material" : 1
                }
            ]
        }
    ],
    "accessors" : [
        {
            "bufferView" : 0,
            "componentType" : 5126,
            "count" : 3706,
            "max" : [
                0.5466582179069519,
                1.5737041234970093,
                0.5466582179069519
            ],
            "min" : [
                -0.5466582179069519,
                -1,
                -0.5466582179069519
            ],
            "type" : "VEC3"
        },
        {
            "bufferView" : 1,
            "componentType" : 5126,
            "count" : 3706,
            "type" : "VEC3"
        },
        {
            "bufferView" : 2,
            "componentType" : 5126,
            "count" : 3706,
            "type" : "VEC2"
        },
        {
            "bufferView" : 3,
            "componentType" : 5123,
            "count" : 5976,
            "type" : "SCALAR"
        },
        {
            "bufferView" : 4,
            "componentType" : 5126,
            "count" : 256,
            "max" : [
                0.2303069829940796,
                0.9999998211860657,
                0.2303069829940796
            ],
            "min" : [
                -0.23030692338943481,
                0.6666666865348816,
                -0.23030692338943481
            ],
            "type" : "VEC3"
        },
        {
            "bufferView" : 5,
            "componentType" : 5126,
            "count" : 256,
            "type" : "VEC3"
        },
        {
            "bufferView" : 6,
            "componentType" : 5126,
            "count" : 256,
            "type" : "VEC2"
        },
        {
            "bufferView" : 7,
            "componentType" : 5123,
            "count" : 384,
            "type" : "SCALAR"
        }
    ],
    "bufferViews" : [
        {
            "buffer" : 0,
            "byteLength" : 44472,
            "byteOffset" : 0
        },
        {
            "buffer" : 0,
            "byteLength" : 44472,
            "byteOffset" : 44472
        },
        {
            "buffer" : 0,
            "byteLength" : 29648,
            "byteOffset" : 88944
        },
        {
            "buffer" : 0,
            "byteLength" : 11952,
            "byteOffset" : 118592
        },
        {
            "buffer" : 0,
            "byteLength" : 3072,
            "byteOffset" : 130544
        },
        {
            "buffer" : 0,
            "byteLength" : 3072,
            "byteOffset" : 133616
        },
        {
            "buffer" : 0,
            "byteLength" : 2048,
            "byteOffset" : 136688
        },
        {
            "buffer" : 0,
            "byteLength" : 768,
            "byteOffset" : 138736
        }
    ],
    "buffers" : [
        {
            "byteLength" : 139504,
            "uri" : "data:application/octet-stream;base64,"
        }
    ]
}
